<svg width="59" height="74" viewBox="0 0 59 74" fill="none" xmlns="http://www.w3.org/2000/svg">
<g clip-path="url(#clip0_1_513)">
<path fill-rule="evenodd" clip-rule="evenodd" d="M3.43614 32.2306C1.57811 34.4528 0.165292 36.958 0.0703125 40.3485V71.5973C0.0703125 72.2362 0.320481 72.8489 0.765783 73.3006C1.21109 73.7524 1.81504 74.0062 2.4448 74.0062H56.6483C57.2781 74.0062 57.882 73.7524 58.3274 73.3006C58.7727 72.8489 59.0228 72.2362 59.0228 71.5973V43.1066C59.0605 40.2249 58.7293 37.3504 58.0374 34.5552C56.4524 27.7742 53.5496 20.355 51.3473 13.4416C50.0473 9.82827 47.3938 8.43114 43.9627 8.28059H31.74C29.4783 8.28059 28.2733 8.11799 26.0947 8.8828C24.2105 9.50261 22.4711 10.5068 20.9836 11.8336L3.43614 32.2306ZM30.1491 17.4643C29.5555 16.8621 29.781 16.1455 30.4518 16.1154H41.9325C42.5708 16.2235 43.1685 16.5044 43.6627 16.9283C44.1569 17.3523 44.5291 17.9036 44.7403 18.5242L49.6852 32.3751C49.9701 33.2423 49.4121 33.694 48.5632 32.9412L30.1491 17.4643Z" fill="#46DBBF"/>
<path fill-rule="evenodd" clip-rule="evenodd" d="M1.39501 7.82878H2.58225V6.38949H0.718282C0.527781 6.38949 0.345084 6.31271 0.21038 6.17606C0.0756759 6.03941 0 5.85406 0 5.66081L0 0.728678C0 0.535421 0.0756759 0.350079 0.21038 0.213425C0.345084 0.0767712 0.527781 0 0.718282 0L20.5037 0C20.6942 0 20.8769 0.0767712 21.0116 0.213425C21.1463 0.350079 21.222 0.535421 21.222 0.728678V5.66081C21.222 5.85406 21.1463 6.03941 21.0116 6.17606C20.8769 6.31271 20.6942 6.38949 20.5037 6.38949H18.6575V7.82878H20.3434C20.5872 7.83434 20.8234 7.91594 21.0199 8.06248C21.2164 8.20901 21.3636 8.41338 21.4416 8.64779L2.29138 30.0324C0.629238 32.1401 0.261193 31.9173 0.237448 30.1829V9.0332C0.237448 8.71377 0.362533 8.40742 0.585184 8.18155C0.807835 7.95567 1.10981 7.82878 1.42469 7.82878H1.39501ZM1.5731 1.24056H2.606V5.13688H1.5731V1.2526V1.24056ZM18.705 1.24056H19.7438V5.13688H18.705V1.2526V1.24056ZM15.8497 1.24056H16.8885V5.13688H15.8497V1.2526V1.24056ZM12.9944 1.24056H14.0332V5.13688H12.9944V1.2526V1.24056ZM10.139 1.24056H11.1779V5.13688H10.139V1.2526V1.24056ZM7.28373 1.24056H8.31069V5.13688H7.28373V1.2526V1.24056ZM4.42841 1.24056H5.46725V5.13688H4.42841V1.2526V1.24056Z" fill="#46DBBF"/>
<path fill-rule="evenodd" clip-rule="evenodd" d="M9.75296 37.53H48.0831C48.8331 37.5332 49.5515 37.8369 50.0818 38.3749C50.6122 38.9129 50.9115 39.6417 50.9146 40.4026V63.8347C50.9053 64.5908 50.603 65.3129 50.0732 65.8448C49.5433 66.3766 48.8285 66.6756 48.0831 66.6772H9.75296C9.00756 66.6756 8.29269 66.3766 7.76285 65.8448C7.233 65.3129 6.93074 64.5908 6.92139 63.8347V40.4026C6.92296 39.6412 7.22178 38.9115 7.75247 38.3731C8.28315 37.8348 9.00246 37.5316 9.75296 37.53Z" fill="#2A3C4E" stroke="#46DBBF" stroke-width="0.48" stroke-miterlimit="22.93"/>
<path fill-rule="evenodd" clip-rule="evenodd" d="M28.8799 41.7334C29.6219 44.9552 32.2161 48.0566 33.8663 51.0617C36.6623 56.1504 34.5549 61.4438 28.8799 61.4438C22.6944 61.4438 21.1628 55.6987 24.2497 50.4534C25.894 47.6351 28.1973 44.7324 28.8799 41.7334ZM24.588 53.9644C24.5776 53.7908 24.6343 53.62 24.746 53.4881C24.8577 53.3563 25.0157 53.2737 25.1864 53.2581C25.357 53.2424 25.527 53.2948 25.6603 53.4042C25.7935 53.5136 25.8795 53.6713 25.8999 53.8439C25.9555 54.6818 26.1734 55.5004 26.541 56.2528C26.9129 56.971 27.4793 57.5664 28.1735 57.9691C29.4082 58.7038 27.3306 60.667 25.3775 56.873C24.9331 55.9659 24.6651 54.9804 24.588 53.9704V53.9644Z" fill="#46DBBF"/>
</g>
<defs>
<clipPath id="clip0_1_513">
<rect width="59" height="74" fill="white"/>
</clipPath>
</defs>
</svg>
